<?xml version="1.0" encoding="UTF-8" standalone="no"?>
<svg width="30px" height="30px" viewBox="0 0 30 30" version="1.1" xmlns="http://www.w3.org/2000/svg" xmlns:xlink="http://www.w3.org/1999/xlink">
    <!-- Generator: Sketch 39.1 (31720) - http://www.bohemiancoding.com/sketch -->
    <title>Shape</title>
    <desc>Created with Sketch.</desc>
    <defs></defs>
    <g id="Symbols" stroke="none" stroke-width="1" fill="none" fill-rule="evenodd">
        <g id="Header-int-mobile" transform="translate(-276.000000, -15.000000)" fill="#FFFFFF">
            <g id="Feedbin-Icon-home-search" transform="translate(276.000000, 15.000000)">
                <g id="Layer_1">
                    <g id="search_1_">
                        <g id="search">
                            <path d="M29.6041667,26.0233333 L22.2041667,18.6216667 C23.4075,16.7566667 24.1191667,14.5425 24.1191667,12.1616667 C24.1191667,5.57083333 18.7541667,0.209166667 12.1641667,0.209166667 C5.57166667,0.209166667 0.211666667,5.57083333 0.211666667,12.1616667 C0.211666667,18.7541667 5.5725,24.115 12.1641667,24.115 C14.5441667,24.115 16.7583333,23.4075 18.6241667,22.2033333 L26.0241667,29.6033333 C26.27,29.8508333 26.6758333,29.8508333 26.9208333,29.6033333 L29.6041667,26.9191667 C29.8533333,26.6733333 29.8533333,26.2691667 29.6041667,26.0233333 L29.6041667,26.0233333 Z M4.00833333,12.1608333 C4.00833333,7.66416667 7.6675,4.00416667 12.165,4.00416667 C16.6633333,4.00416667 20.3208333,7.66416667 20.3208333,12.1608333 C20.3208333,16.6591667 16.6633333,20.3183333 12.165,20.3183333 C7.66666667,20.3183333 4.00833333,16.6591667 4.00833333,12.1608333 L4.00833333,12.1608333 Z" id="Shape"></path>
                        </g>
                    </g>
                </g>
            </g>
        </g>
    </g>
</svg>