<?xml version="1.0" encoding="UTF-8" standalone="no"?>
<svg width="17px" height="17px" viewBox="0 0 17 17" version="1.1" xmlns="http://www.w3.org/2000/svg" xmlns:xlink="http://www.w3.org/1999/xlink">
    <!-- Generator: Sketch 39.1 (31720) - http://www.bohemiancoding.com/sketch -->
    <title>Shape</title>
    <desc>Created with Sketch.</desc>
    <defs></defs>
    <g id="/" stroke="none" stroke-width="1" fill="none" fill-rule="evenodd">
        <g id="Desktop-HD" transform="translate(-923.000000, -224.000000)" fill="#2880C9">
            <g id="Hero" transform="translate(0.000000, 60.000000)">
                <path d="M939.89236,178.835832 L935.639457,174.581971 C936.331033,173.510124 936.740039,172.237606 936.740039,170.869301 C936.740039,167.081439 933.656684,164 929.869301,164 C926.080481,164 923,167.081439 923,170.869301 C923,174.658121 926.08096,177.739081 929.869301,177.739081 C931.237127,177.739081 932.509646,177.332469 933.581971,176.640415 L937.834875,180.893318 C937.976159,181.035561 938.209398,181.035561 938.350204,180.893318 L939.89236,179.350683 C940.035561,179.209398 940.035561,178.977117 939.89236,178.835832 L939.89236,178.835832 Z M925.182008,170.868822 C925.182008,168.284513 927.284992,166.18105 929.86978,166.18105 C932.455047,166.18105 934.557074,168.284513 934.557074,170.868822 C934.557074,173.45409 932.455047,175.557074 929.86978,175.557074 C927.284513,175.557074 925.182008,173.45409 925.182008,170.868822 L925.182008,170.868822 Z" id="Shape"></path>
            </g>
        </g>
    </g>
</svg>